<svg xmlns="http://www.w3.org/2000/svg" viewBox="0 0 100 100">
  <defs>
    <linearGradient id="grad" x1="0%" y1="0%" x2="100%" y2="100%">
      <stop offset="0%" style="stop-color:#4ECDC4"/>
      <stop offset="100%" style="stop-color:#556270"/>
    </linearGradient>
  </defs>
  <circle cx="50" cy="50" r="48" fill="url(#grad)"/>
  <path d="M65 50c0-8.284-6.716-15-15-15-2.761 0-5.347.746-7.5 2.032C40.182 35.746 37.596 35 34.835 35c-8.284 0-15 6.716-15 15 0 .276.008.55.022.822C12.448 53.15 7 60.055 7 68c0 9.941 8.059 18 18 18h30c8.822 0 16-7.178 16-16 0-7.945-5.802-14.574-13.5-15.878-.032-.276-.022-.55-.022-.822h7.522C72.448 46.85 77 39.945 77 32c0-9.941-8.059-18-18-18-8.822 0-16 7.178-16 16 0 7.945 5.802 14.574 13.5 15.878C56.032 42.278 56 42.552 56 42.822 56 45.084 56.916 47.145 58.478 48.702 59.416 49.64 60.618 50 62 50h3z" fill="white"/>
</svg>
